#!OML:ASF E:\acrobat2\Project_11_07_03\Capture day 1\Session 1\Acrobat.ASF
:FULLY-SPECIFIED
:DEGREES
565
root 8.5296 17.9276 14.9145 -172.872 -6.47471 -176.581
lowerback 5.82441 7.55854 6.76594
upperback 3.33042 10.1173 -5.2285
thorax 2.41971 5.23066 -9.48184
lowerneck 6.34799 20.8466 7.27855
upperneck 3.6264 28.2437 -7.67179
head 2.4392 14.1895 -3.03036
rclavicle 4.13472e-014 -6.20208e-014
rhumerus -33.5567 -6.50136 -80.1555
rradius 91.8293
rwrist -18.3266
rhand -19.2592 -27.2283
rfingers 7.12502
rthumb 7.05494 -57.0907
lclavicle 4.13472e-014 -6.20208e-014
lhumerus -42.9833 -48.6702 88.1024
lradius 72.7115
lwrist 20.0685
lhand -9.93378 -3.03027
lfingers 7.12502
lthumb 16.0474 26.3252
rfemur -22.3711 -3.63225 27.9104
rtibia 36.7272
rfoot -15.4647 -5.21897
rtoes -6.32395
lfemur -35.4036 -0.671074 -16.2771
ltibia 55.7566
lfoot 22.0755 -8.71313
ltoes 18.7819
566
root 8.54763 17.9403 15.0625 -173.144 -6.14197 -176.487
lowerback 5.93991 7.71651 6.6868
upperback 3.32973 10.3235 -5.23539
thorax 2.38693 5.32907 -9.45638
lowerneck 5.62368 20.7283 7.38298
upperneck 4.67133 28.0743 -7.35136
head 2.8667 14.0738 -2.80679
rclavicle -6.0033e-014 3.49861e-014
rhumerus -33.3439 -6.05279 -80.7889
rradius 91.4639
rwrist -18.0185
rhand -18.9864 -27.4596
rfingers 7.12502
rthumb 7.31831 -57.3131
lclavicle -6.0033e-014 3.49861e-014
lhumerus -43.0058 -48.7441 88.1706
lradius 73.1158
lwrist 20.2491
lhand -10.0447 -3.50943
lfingers 7.12502
lthumb 15.9406 25.8546
rfemur -21.5301 -3.87858 27.9864
rtibia 37.6257
rfoot -14.898 -4.75288
rtoes -5.8647
lfemur -35.4574 -0.280525 -16.2113
ltibia 55.4517
lfoot 22.0876 -8.96643
ltoes 17.3132
567
root 8.5641 17.9532 15.2123 -173.225 -6.02348 -176.398
lowerback 5.83863 7.7926 6.59781
upperback 3.24904 10.4228 -5.23544
thorax 2.3614 5.37493 -9.39523
lowerneck 6.38232 20.7584 7.52456
upperneck 3.58961 28.1504 -7.97085
head 2.50313 14.1463 -3.15147
rclavicle -2.82274e-014 -5.1684e-014
rhumerus -33.3184 -5.49708 -81.3978
rradius 91.1537
rwrist -17.8867
rhand -18.9296 -26.9027
rfingers 7.12502
rthumb 7.37313 -56.7542
lclavicle -2.82274e-014 -5.1684e-014
lhumerus -43.109 -48.5864 88.2843
lradius 73.5152
lwrist 20.3095
lhand -9.92151 -3.83695
lfingers 7.12502
lthumb 16.0592 25.5175
rfemur -20.9335 -4.25911 28.057
rtibia 38.501
rfoot -14.1887 -4.40601
rtoes -6.24793
lfemur -35.7136 -0.100897 -16.1147
ltibia 55.064
lfoot 22.1588 -9.13652
ltoes 16.1228
568
root 8.5767 17.9636 15.3632 -173.28 -6.19134 -176.387
lowerback 5.81904 7.80803 6.64701
upperback 3.0846 10.4542 -5.33235
thorax 2.23368 5.38704 -9.53584
lowerneck 6.40019 20.7686 7.54536
upperneck 3.54475 28.1573 -7.8513
head 2.46735 14.1496 -3.12492
rclavicle -5.64548e-014 3.26007e-014
rhumerus -33.6012 -5.06452 -82.0484
rradius 90.9527
rwrist -17.6901
rhand -18.5732 -27.2253
rfingers 7.12502
rthumb 7.71713 -57.0645
lclavicle -5.64548e-014 3.26007e-014
lhumerus -43.4079 -48.7545 88.4683
lradius 74.0052
lwrist 20.4408
lhand -9.80403 -4.11427
lfingers 7.12502
lthumb 16.1724 25.2311
rfemur -20.3374 -4.8661 28.0487
rtibia 39.3929
rfoot -13.3675 -4.24591
rtoes -6.68428
lfemur -35.9857 -0.255403 -16.0504
ltibia 54.6052
lfoot 22.3795 -8.91416
ltoes 16.9313
569
root 8.59207 17.9766 15.5157 -173.322 -6.22518 -176.384
lowerback 5.84659 7.91285 6.68042
upperback 2.90315 10.6045 -5.45424
thorax 2.0906 5.45734 -9.69961
lowerneck 6.52069 20.7562 7.65668
upperneck 3.43923 28.1486 -7.9075
head 2.43729 14.1495 -3.17431
rclavicle -2.23036e-013 -2.70347e-014
rhumerus -33.8223 -4.75736 -82.6191
rradius 90.7388
rwrist -17.335
rhand -17.8736 -27.6651
rfingers 7.12502
rthumb 8.39227 -57.4784
lclavicle -2.23036e-013 -2.70347e-014
lhumerus -43.7013 -49.119 88.6551
lradius 74.5659
lwrist 20.6088
lhand -9.53691 -4.34944
lfingers 7.12502
lthumb 16.4295 24.9748
rfemur -19.7126 -5.23371 28.0249
rtibia 40.2898
rfoot -12.4112 -4.18509
rtoes -6.47909
lfemur -36.2511 -0.318339 -15.9835
ltibia 54.1002
lfoot 22.6709 -8.76344
ltoes 17.5862
570
root 8.61133 17.9906 15.6721 -173.333 -6.28693 -176.38
lowerback 5.57957 7.76583 6.26627
upperback 2.98801 10.3807 -5.21078
thorax 2.14932 5.33377 -9.17053
lowerneck 6.45132 20.9007 6.97848
upperneck 3.11106 28.2974 -8.18302
head 2.29339 14.2216 -3.18575
rclavicle 7.23576e-014 -4.37326e-014
rhumerus -33.2978 -3.43785 -82.8406
rradius 90.3174
rwrist -17.1117
rhand -17.0108 -27.59
rfingers 7.12502
rthumb 9.22492 -57.3682
lclavicle 7.23576e-014 -4.37326e-014
lhumerus -43.464 -48.2053 88.7295
lradius 75.0315
lwrist 20.5363
lhand -9.19535 -4.42699
lfingers 7.12502
lthumb 16.7584 24.8697
rfemur -19.1283 -5.55835 28.0102
rtibia 41.1365
rfoot -11.2366 -4.38801
rtoes -7.44048
lfemur -36.5836 -0.33804 -15.9281
ltibia 53.5591
lfoot 23.0152 -8.94552
ltoes 16.6165
571
root 8.62728 18.006 15.8236 -173.39 -6.46598 -176.437
lowerback 5.72353 8.15215 6.666
upperback 2.67094 10.9269 -5.67027
thorax 2.02687 5.61743 -9.91208
lowerneck 7.05504 20.3411 8.17713
upperneck 2.89184 27.6476 -8.32292
head 2.26762 13.9235 -3.48519
rclavicle -3.77691e-014 1.01778e-013
rhumerus -33.9605 -4.44992 -83.3723
rradius 90.1401
rwrist -16.8178
rhand -16.3046 -26.7626
rfingers 7.12502
rthumb 9.90626 -56.5095
lclavicle -3.77691e-014 1.01778e-013
lhumerus -43.8897 -49.7791 88.9089
lradius 75.643
lwrist 20.732
lhand -8.88672 -4.44318
lfingers 7.12502
lthumb 17.0555 24.8281
rfemur -18.4668 -6.13572 27.8798
rtibia 41.9146
rfoot -9.50287 -4.82232
rtoes -7.96963
lfemur -36.7769 -0.536925 -15.9012
ltibia 52.9839
lfoot 23.285 -8.90938
ltoes 16.8619
572
root 8.6401 18.0224 15.9692 -173.508 -6.61096 -176.544
lowerback 5.60816 8.13241 6.53556
upperback 2.68834 10.8855 -5.71317
thorax 2.08314 5.59549 -9.8678
lowerneck 6.74949 20.4172 7.99094
upperneck 2.97683 27.7238 -8.22697
head 2.30913 13.9519 -3.3893
rclavicle -7.71285e-014 8.90555e-014
rhumerus -33.8729 -3.89734 -83.8071
rradius 89.7379
rwrist -16.8873
rhand -15.978 -25.2678
rfingers 7.12502
rthumb 10.2214 -54.9995
lclavicle -7.71285e-014 8.90555e-014
lhumerus -43.7867 -49.6441 88.8931
lradius 76.1396
lwrist 20.8121
lhand -8.46651 -4.5579
lfingers 7.12502
lthumb 17.4599 24.678
rfemur -17.6742 -6.76764 27.6405
rtibia 42.6358
rfoot -7.4734 -4.80512
rtoes -5.68725
lfemur -36.7818 -0.821821 -15.8724
ltibia 52.3674
lfoot 23.5846 -8.24689
ltoes 20.3021
573
root 8.65131 18.0354 16.1218 -173.641 -6.74771 -176.644
lowerback 5.3241 7.8499 6.07283
upperback 2.96962 10.4685 -5.41112
thorax 2.29394 5.37982 -9.23702
lowerneck 5.96643 20.8858 6.86535
upperneck 3.21634 28.2571 -8.09674
head 2.37249 14.1875 -3.08615
rclavicle 1.24042e-013 -2.78299e-014
rhumerus -33.256 -2.1824 -84.0686
rradius 89.306
rwrist -17.1087
rhand -16.0178 -24.6051
rfingers 7.12502
rthumb 10.183 -54.3387
lclavicle 1.24042e-013 -2.78299e-014
lhumerus -43.1516 -48.3277 88.788
lradius 76.5112
lwrist 20.6678
lhand -8.04119 -4.54934
lfingers 7.12502
lthumb 17.8692 24.6497
rfemur -16.8585 -7.28588 27.3636
rtibia 43.3159
rfoot -5.67008 -4.22316
rtoes -2.89413
lfemur -36.8197 -1.09384 -15.897
ltibia 51.702
lfoot 24.015 -7.61388
ltoes 22.7323
574
root 8.66289 18.049 16.2817 -173.749 -6.91748 -176.794
lowerback 5.42987 8.0843 6.17016
upperback 2.80735 10.7889 -5.65775
thorax 2.20262 5.54111 -9.57262
lowerneck 6.45686 20.6268 7.71103
upperneck 3.2081 27.9821 -8.30017
head 2.43035 14.0684 -3.30982
rclavicle 1.39944e-013 -1.51076e-013
rhumerus -33.9184 -2.4272 -84.5546
rradius 89.4788
rwrist -16.8726
rhand -15.9836 -24.7652
rfingers 7.12502
rthumb 10.2159 -54.4971
lclavicle 1.39944e-013 -1.51076e-013
lhumerus -43.2043 -49.1631 89.0014
lradius 76.9237
lwrist 20.609
lhand -7.6257 -4.4698
lfingers 7.12502
lthumb 18.269 24.6923
rfemur -16.1175 -7.72627 27.0243
rtibia 43.9756
rfoot -3.69119 -3.97009
rtoes -0.969065
lfemur -36.9218 -1.41466 -16.0047
ltibia 50.9975
lfoot 24.4104 -7.32174
ltoes 22.8057
